<?xml version="1.0" standalone="no"?>
<!DOCTYPE svg PUBLIC "-//W3C//DTD SVG 20010904//EN"
 "http://www.w3.org/TR/2001/REC-SVG-20010904/DTD/svg10.dtd">
<svg version="1.0" xmlns="http://www.w3.org/2000/svg"
 width="2816.000000pt" height="1536.000000pt" viewBox="0 0 2816.000000 1536.000000"
 preserveAspectRatio="xMidYMid meet">

<g transform="translate(0.000000,1536.000000) scale(0.100000,-0.100000)"
fill="#000000" stroke="none">
<path d="M13935 11359 c-505 -21 -1010 -151 -1485 -385 -677 -333 -1327 -999
-1651 -1692 -140 -298 -251 -630 -299 -895 -88 -490 -90 -917 -4 -1387 112
-615 417 -1248 823 -1710 355 -405 753 -713 1206 -935 323 -158 605 -249 945
-305 41 -7 84 -14 94 -16 43 -8 229 -25 351 -32 595 -35 1226 97 1771 371 127
64 349 197 424 254 93 71 183 133 193 133 6 0 177 -166 381 -370 204 -203 375
-370 379 -370 11 -2 647 627 647 639 0 4 -166 177 -370 384 -203 206 -370 380
-370 387 0 6 19 37 43 68 163 215 285 425 401 688 226 516 329 1041 313 1599
-14 483 -112 923 -306 1374 -76 176 -85 195 -174 346 -184 314 -355 535 -616
795 -420 419 -877 703 -1414 879 -421 138 -843 197 -1282 180z m410 -954 c420
-44 760 -157 1120 -373 564 -338 1007 -918 1198 -1567 88 -297 130 -672 108
-960 -37 -481 -157 -866 -390 -1256 -35 -59 -73 -119 -85 -134 l-21 -26 -315
313 c-346 345 -379 371 -474 369 -90 -1 -130 -26 -313 -199 -182 -173 -217
-214 -239 -288 -20 -67 -18 -91 14 -159 25 -52 71 -101 346 -370 174 -170 315
-315 314 -323 -4 -19 -183 -130 -341 -211 -308 -157 -614 -245 -962 -276 -308
-27 -667 12 -990 106 -191 56 -461 181 -646 299 -316 200 -643 522 -839 825
-371 573 -516 1279 -404 1960 25 153 44 236 76 340 119 388 336 773 600 1062
416 457 963 755 1555 848 226 35 474 42 688 20z"/>
<path d="M12427 9332 c-16 -3 -17 -45 -17 -547 l0 -544 548 -3 c301 -2 553 1
560 6 9 7 12 128 12 547 0 424 -3 539 -12 539 -92 3 -1079 4 -1091 2z m933
-547 l0 -385 -392 2 -393 3 -3 383 -2 382 395 0 395 0 0 -385z"/>
<path d="M12938 9012 l-198 -2 0 -225 0 -225 228 2 227 3 0 225 0 225 -30 0
c-16 0 -119 -1 -227 -3z"/>
<path d="M14642 9328 c-4 -4 -5 -251 -2 -549 l5 -542 549 1 c302 0 553 5 557
9 5 5 8 251 7 547 l-3 537 -553 2 c-304 1 -556 -1 -560 -5z m946 -540 l-3
-383 -390 0 -390 0 -3 383 -2 382 395 0 395 0 -2 -382z"/>
<path d="M15150 9012 l-185 -2 0 -223 1 -222 227 -3 227 -2 0 82 c1 46 2 148
3 228 l2 145 -45 0 c-25 0 -128 -1 -230 -3z"/>
<path d="M13787 8055 c-48 -17 -67 -33 -84 -72 -27 -67 -4 -134 59 -173 63
-38 135 -15 186 60 18 27 22 43 17 70 -18 95 -94 145 -178 115z"/>
<path d="M14256 8039 c-62 -48 -75 -135 -29 -190 28 -33 78 -59 114 -59 63 0
129 66 129 130 0 46 -28 99 -64 121 -43 26 -115 25 -150 -2z"/>
<path d="M14014 7792 c-32 -21 -64 -76 -64 -112 0 -59 60 -120 124 -127 43 -5
48 -3 85 34 44 44 56 77 47 126 -15 79 -122 123 -192 79z"/>
<path d="M13815 7563 c-77 -15 -115 -57 -115 -128 0 -61 24 -100 77 -126 52
-25 91 -19 138 22 44 39 60 87 46 132 -21 61 -91 110 -146 100z"/>
<path d="M14294 7559 c-49 -14 -94 -71 -94 -120 0 -175 252 -195 267 -22 8 98
-79 170 -173 142z"/>
<path d="M12937 7122 l-527 -2 2 -548 3 -547 535 -3 c294 -1 545 0 558 3 l22
5 0 545 c0 429 -3 545 -12 546 -7 0 -22 1 -33 2 -11 1 -257 1 -548 -1z m423
-547 l0 -385 -392 2 -393 3 -3 370 c-1 203 0 376 3 382 3 10 91 13 395 13
l390 0 0 -385z"/>
<path d="M12740 6575 l0 -225 228 2 227 3 3 223 2 222 -230 0 -230 0 0 -225z"/>
</g>
</svg>
