<svg version="1.2" xmlns="http://www.w3.org/2000/svg" viewBox="0 0 812 812" width="812" height="812"><style>.a{fill:#7c3aed}</style><path class="a" d="m393.5 40.1c-50.5 2.1-101 15.1-148.5 38.5-67.7 33.3-132.7 99.9-165.1 169.2-14 29.8-25.1 63-29.9 89.5-8.8 49-9 91.7-0.4 138.7 11.2 61.5 41.7 124.8 82.3 171 35.5 40.5 75.3 71.3 120.6 93.5 32.3 15.8 60.5 24.9 94.5 30.5 4.1 0.7 8.4 1.4 9.4 1.6 4.3 0.8 22.9 2.5 35.1 3.2 59.5 3.5 122.6-9.7 177.1-37.1 12.7-6.4 34.9-19.7 42.4-25.4 9.3-7.1 18.3-13.3 19.3-13.3 0.6 0 17.7 16.6 38.1 37 20.4 20.3 37.5 37 37.9 37 1.1 0.2 64.7-62.7 64.7-63.9 0-0.4-16.6-17.7-37-38.4-20.3-20.6-37-38-37-38.7 0-0.6 1.9-3.7 4.3-6.8 16.3-21.5 28.5-42.5 40.1-68.8 22.6-51.6 32.9-104.1 31.3-159.9-1.4-48.3-11.2-92.3-30.6-137.4-7.6-17.6-8.5-19.5-17.4-34.6-18.4-31.4-35.5-53.5-61.6-79.5-42-41.9-87.7-70.3-141.4-87.9-42.1-13.8-84.3-19.7-128.2-18zm41 95.4c42 4.4 76 15.7 112 37.3 56.4 33.8 100.7 91.8 119.8 156.7 8.8 29.7 13 67.2 10.8 96-3.7 48.1-15.7 86.6-39 125.6-3.5 5.9-7.3 11.9-8.5 13.4l-2.1 2.6-31.5-31.3c-34.6-34.5-37.9-37.1-47.4-36.9-9 0.1-13 2.6-31.3 19.9-18.2 17.3-21.7 21.4-23.9 28.8-2 6.7-1.8 9.1 1.4 15.9 2.5 5.2 7.1 10.1 34.6 37 17.4 17 31.5 31.5 31.4 32.3-0.4 1.9-18.3 13-34.1 21.1-30.8 15.7-61.4 24.5-96.2 27.6-30.8 2.7-66.7-1.2-99-10.6-19.1-5.6-46.1-18.1-64.6-29.9-31.6-20-64.3-52.2-83.9-82.5-37.1-57.3-51.6-127.9-40.4-196 2.5-15.3 4.4-23.6 7.6-34 11.9-38.8 33.6-77.3 60-106.2 41.6-45.7 96.3-75.5 155.5-84.8 22.6-3.5 47.4-4.2 68.8-2z"/><path class="a" d="m242.7 242.8c-1.6 0.3-1.7 4.5-1.7 54.7v54.4l54.8 0.3c30.1 0.2 55.3-0.1 56-0.6 0.9-0.7 1.2-12.8 1.2-54.7 0-42.4-0.3-53.9-1.2-53.9-9.2-0.3-107.9-0.4-109.1-0.2zm93.3 54.7v38.5l-39.2-0.2-39.3-0.3-0.3-38.3-0.2-38.2h39.5 39.5z"/><path class="a" d="m293.8 274.8l-19.8 0.2v22.5 22.5l22.8-0.2 22.7-0.3v-22.5-22.5h-3c-1.6 0-11.9 0.1-22.7 0.3z"/><path class="a" d="m464.2 243.2c-0.4 0.4-0.5 25.1-0.2 54.9l0.5 54.2 54.9-0.1c30.2 0 55.3-0.5 55.7-0.9 0.5-0.5 0.8-25.1 0.7-54.7l-0.3-53.7-55.3-0.2c-30.4-0.1-55.6 0.1-56 0.5zm94.6 54l-0.3 38.3h-39-39l-0.3-38.3-0.2-38.2h39.5 39.5z"/><path class="a" d="m515 274.8l-18.5 0.2v22.3l0.1 22.2 22.7 0.3 22.7 0.2v-8.2c0.1-4.6 0.2-14.8 0.3-22.8l0.2-14.5h-4.5c-2.5 0-12.8 0.1-23 0.3z"/><path class="a" d="m378.7 370.5c-4.8 1.7-6.7 3.3-8.4 7.2-2.7 6.7-0.4 13.4 5.9 17.3 6.3 3.8 13.5 1.5 18.6-6 1.8-2.7 2.2-4.3 1.7-7-1.8-9.5-9.4-14.5-17.8-11.5z"/><path class="a" d="m425.6 372.1c-6.2 4.8-7.5 13.5-2.9 19 2.8 3.3 7.8 5.9 11.4 5.9 6.3 0 12.9-6.6 12.9-13 0-4.6-2.8-9.9-6.4-12.1-4.3-2.6-11.5-2.5-15 0.2z"/><path class="a" d="m401.4 396.8c-3.2 2.1-6.4 7.6-6.4 11.2 0 5.9 6 12 12.4 12.7 4.3 0.5 4.8 0.3 8.5-3.4 4.4-4.4 5.6-7.7 4.7-12.6-1.5-7.9-12.2-12.3-19.2-7.9z"/><path class="a" d="m381.5 419.7c-7.7 1.5-11.5 5.7-11.5 12.8 0 6.1 2.4 10 7.7 12.6 5.2 2.5 9.1 1.9 13.8-2.2 4.4-3.9 6-8.7 4.6-13.2-2.1-6.1-9.1-11-14.6-10z"/><path class="a" d="m429.4 420.1c-4.9 1.4-9.4 7.1-9.4 12 0 17.5 25.2 19.5 26.7 2.2 0.8-9.8-7.9-17-17.3-14.2z"/><path class="a" d="m293.7 463.8l-52.7 0.2 0.2 54.8 0.3 54.7 53.5 0.3c29.4 0.1 54.5 0 55.8-0.3l2.2-0.5v-54.5c0-42.9-0.3-54.5-1.2-54.6-0.7 0-2.2-0.1-3.3-0.2-1.1-0.1-25.7-0.1-54.8 0.1zm42.3 54.7v38.5l-39.2-0.2-39.3-0.3-0.3-37c-0.1-20.3 0-37.6 0.3-38.2 0.3-1 9.1-1.3 39.5-1.3h39z"/><path class="a" d="m274 518.5v22.5l22.8-0.2 22.7-0.3 0.3-22.3 0.2-22.2h-23-23z"/></svg>